<svg width="335" height="52" viewBox="0 0 335 52" fill="none" xmlns="http://www.w3.org/2000/svg">
<g clip-path="url(#clip0_50_69)">
<path d="M16.2616 20.1677V24.5188H26.762C26.4832 26.9257 25.6469 28.7772 24.346 29.9807C22.8592 31.4619 20.4432 33.1283 16.2616 33.1283C9.84989 33.1283 4.83202 27.9441 4.83202 21.5563C4.83202 15.1686 9.75697 9.98436 16.2616 9.98436C19.6998 9.98436 22.3016 11.373 24.1601 13.1319L27.2266 10.0769C24.6247 7.57739 21.0936 5.6333 16.2616 5.6333C7.43388 5.6333 0 12.7616 0 21.5563C0 30.351 7.43388 37.4794 16.2616 37.4794C21.0007 37.4794 24.6247 35.9056 27.4124 33.0357C30.2931 30.1659 31.2223 26.0925 31.2223 22.8524C31.2223 21.8341 31.1294 20.9083 31.0365 20.1677H16.2616Z" fill="white"/>
<path d="M44.2316 16.5571C38.5633 16.5571 33.8242 20.9082 33.8242 26.833C33.8242 32.7579 38.4703 37.1089 44.2316 37.1089C49.9929 37.1089 54.639 32.8505 54.639 26.9256C54.639 20.9082 49.9929 16.5571 44.2316 16.5571ZM44.2316 33.1282C41.0722 33.1282 38.3774 30.5361 38.3774 26.9256C38.3774 23.2226 41.0722 20.723 44.2316 20.723C47.391 20.723 50.0858 23.2226 50.0858 26.9256C50.0858 30.5361 47.391 33.1282 44.2316 33.1282Z" fill="white"/>
<path d="M95.0608 18.8715H94.8749C93.8528 17.668 91.9014 16.5571 89.3924 16.5571C84.1887 16.5571 79.7284 21.0008 79.7284 26.833C79.7284 32.5727 84.1887 37.1089 89.3924 37.1089C91.9014 37.1089 93.8528 35.998 94.8749 34.7946H95.0608V36.2758C95.0608 40.1639 92.9235 42.2932 89.5783 42.2932C86.7906 42.2932 85.1179 40.3491 84.3746 38.5902L80.4718 40.2565C81.5868 42.9412 84.6533 46.3665 89.6712 46.3665C94.9678 46.3665 99.5211 43.2189 99.5211 35.6277V17.1126H95.2466V18.8715H95.0608ZM89.857 33.1282C86.6976 33.1282 84.3746 30.4435 84.3746 26.9256C84.3746 23.3152 86.7906 20.723 89.857 20.723C92.9235 20.723 95.3395 23.4077 95.3395 27.0182C95.4325 30.5361 93.0164 33.1282 89.857 33.1282Z" fill="white"/>
<path d="M67.3696 16.5571C61.7012 16.5571 56.9621 20.9082 56.9621 26.833C56.9621 32.7579 61.6083 37.1089 67.3696 37.1089C73.1308 37.1089 77.777 32.8505 77.777 26.9256C77.777 20.9082 73.1308 16.5571 67.3696 16.5571ZM67.3696 33.1282C64.2102 33.1282 61.5154 30.5361 61.5154 26.9256C61.5154 23.2226 64.2102 20.723 67.3696 20.723C70.529 20.723 73.2237 23.2226 73.2237 26.9256C73.2237 30.5361 70.529 33.1282 67.3696 33.1282Z" fill="white"/>
<path d="M102.959 6.09619H107.42V37.2016H102.959V6.09619Z" fill="white"/>
<path d="M121.172 33.1282C118.849 33.1282 117.269 32.1099 116.154 29.9806L130 24.3335L129.535 23.13C128.699 20.8156 126.004 16.5571 120.708 16.5571C115.411 16.5571 110.951 20.723 110.951 26.833C110.951 32.5727 115.318 37.1089 121.172 37.1089C125.911 37.1089 128.606 34.2391 129.814 32.5727L126.283 30.2583C125.075 32.0173 123.495 33.1282 121.172 33.1282ZM120.894 20.4453C122.752 20.4453 124.332 21.3711 124.796 22.6671L115.504 26.5553C115.411 22.2968 118.57 20.4453 120.894 20.4453Z" fill="white"/>
</g>
<path d="M140.84 40V12H149.88C153.133 12 155.813 12.5733 157.92 13.72C160.053 14.8667 161.627 16.4933 162.64 18.6C163.68 20.68 164.2 23.16 164.2 26.04C164.2 28.8667 163.68 31.3333 162.64 33.44C161.627 35.52 160.053 37.1333 157.92 38.28C155.813 39.4267 153.133 40 149.88 40H140.84ZM145.64 35.92H149.64C152.067 35.92 153.973 35.5333 155.36 34.76C156.773 33.96 157.773 32.8267 158.36 31.36C158.973 29.8667 159.28 28.0933 159.28 26.04C159.28 23.96 158.973 22.1867 158.36 20.72C157.773 19.2267 156.773 18.08 155.36 17.28C153.973 16.4533 152.067 16.04 149.64 16.04H145.64V35.92ZM178.167 40.48C176.167 40.48 174.407 40.0533 172.887 39.2C171.367 38.32 170.18 37.0933 169.327 35.52C168.474 33.9467 168.047 32.1333 168.047 30.08C168.047 27.9467 168.46 26.08 169.287 24.48C170.14 22.88 171.327 21.6267 172.847 20.72C174.394 19.8133 176.18 19.36 178.207 19.36C180.18 19.36 181.9 19.8 183.367 20.68C184.834 21.56 185.967 22.7467 186.767 24.24C187.567 25.7067 187.967 27.36 187.967 29.2C187.967 29.4667 187.967 29.76 187.967 30.08C187.967 30.4 187.94 30.7333 187.887 31.08H171.487V28H183.127C183.074 26.5333 182.58 25.3867 181.647 24.56C180.714 23.7067 179.554 23.28 178.167 23.28C177.18 23.28 176.274 23.5067 175.447 23.96C174.62 24.4133 173.967 25.0933 173.487 26C173.007 26.88 172.767 28 172.767 29.36V30.52C172.767 31.7733 172.994 32.8533 173.447 33.76C173.927 34.6667 174.567 35.36 175.367 35.84C176.194 36.2933 177.114 36.52 178.127 36.52C179.247 36.52 180.167 36.28 180.887 35.8C181.634 35.32 182.18 34.68 182.527 33.88H187.407C187.034 35.1333 186.42 36.2667 185.567 37.28C184.714 38.2667 183.66 39.0533 182.407 39.64C181.154 40.2 179.74 40.48 178.167 40.48ZM201.839 40.48C199.839 40.48 198.079 40.0533 196.559 39.2C195.039 38.32 193.852 37.0933 192.999 35.52C192.145 33.9467 191.719 32.1333 191.719 30.08C191.719 27.9467 192.132 26.08 192.959 24.48C193.812 22.88 194.999 21.6267 196.519 20.72C198.065 19.8133 199.852 19.36 201.879 19.36C203.852 19.36 205.572 19.8 207.039 20.68C208.505 21.56 209.639 22.7467 210.439 24.24C211.239 25.7067 211.639 27.36 211.639 29.2C211.639 29.4667 211.639 29.76 211.639 30.08C211.639 30.4 211.612 30.7333 211.559 31.08H195.159V28H206.799C206.745 26.5333 206.252 25.3867 205.319 24.56C204.385 23.7067 203.225 23.28 201.839 23.28C200.852 23.28 199.945 23.5067 199.119 23.96C198.292 24.4133 197.639 25.0933 197.159 26C196.679 26.88 196.439 28 196.439 29.36V30.52C196.439 31.7733 196.665 32.8533 197.119 33.76C197.599 34.6667 198.239 35.36 199.039 35.84C199.865 36.2933 200.785 36.52 201.799 36.52C202.919 36.52 203.839 36.28 204.559 35.8C205.305 35.32 205.852 34.68 206.199 33.88H211.079C210.705 35.1333 210.092 36.2667 209.239 37.28C208.385 38.2667 207.332 39.0533 206.079 39.64C204.825 40.2 203.412 40.48 201.839 40.48ZM216.071 48.8V19.84H220.351L220.871 22.76C221.297 22.1733 221.804 21.6267 222.391 21.12C223.004 20.5867 223.737 20.16 224.591 19.84C225.471 19.52 226.471 19.36 227.591 19.36C229.484 19.36 231.151 19.8267 232.591 20.76C234.057 21.6933 235.204 22.96 236.031 24.56C236.857 26.1333 237.271 27.9333 237.271 29.96C237.271 31.9867 236.844 33.8 235.991 35.4C235.164 36.9733 234.017 38.2133 232.551 39.12C231.111 40.0267 229.457 40.48 227.591 40.48C226.071 40.48 224.737 40.2 223.591 39.64C222.471 39.0533 221.564 38.2267 220.871 37.16V48.8H216.071ZM226.591 36.32C227.711 36.32 228.711 36.0533 229.591 35.52C230.471 34.9867 231.151 34.24 231.631 33.28C232.137 32.32 232.391 31.2133 232.391 29.96C232.391 28.68 232.137 27.56 231.631 26.6C231.151 25.64 230.471 24.8933 229.591 24.36C228.711 23.8267 227.711 23.56 226.591 23.56C225.444 23.56 224.431 23.8267 223.551 24.36C222.697 24.8933 222.017 25.64 221.511 26.6C221.031 27.56 220.791 28.6667 220.791 29.92C220.791 31.2 221.031 32.32 221.511 33.28C222.017 34.2133 222.697 34.96 223.551 35.52C224.431 36.0533 225.444 36.32 226.591 36.32ZM242.09 40V12H247.77L256.73 30.08L265.61 12H271.33V40H266.53V20.24L258.61 36.08H254.85L246.89 20.28V40H242.09ZM277.052 40V19.84H281.852V40H277.052ZM279.452 16.64C278.572 16.64 277.839 16.3733 277.252 15.84C276.692 15.28 276.412 14.6 276.412 13.8C276.412 12.9733 276.692 12.3067 277.252 11.8C277.839 11.2667 278.572 11 279.452 11C280.332 11 281.052 11.2667 281.612 11.8C282.199 12.3067 282.492 12.9733 282.492 13.8C282.492 14.6 282.199 15.28 281.612 15.84C281.052 16.3733 280.332 16.64 279.452 16.64ZM287.399 40V19.84H291.639L291.999 23.2C292.612 22.0267 293.492 21.0933 294.639 20.4C295.785 19.7067 297.145 19.36 298.719 19.36C300.345 19.36 301.732 19.7067 302.879 20.4C304.025 21.0667 304.905 22.0533 305.519 23.36C306.159 24.6667 306.479 26.2933 306.479 28.24V40H301.679V28.68C301.679 27 301.305 25.7067 300.559 24.8C299.812 23.8933 298.705 23.44 297.239 23.44C296.279 23.44 295.412 23.6667 294.639 24.12C293.892 24.5733 293.292 25.24 292.839 26.12C292.412 26.9733 292.199 28.0133 292.199 29.24V40H287.399ZM320.499 40.48C318.633 40.48 316.966 40.0267 315.499 39.12C314.033 38.2133 312.886 36.96 312.059 35.36C311.259 33.76 310.859 31.9467 310.859 29.92C310.859 27.8933 311.273 26.0933 312.099 24.52C312.926 22.92 314.073 21.6667 315.539 20.76C317.033 19.8267 318.713 19.36 320.579 19.36C322.099 19.36 323.419 19.6533 324.539 20.24C325.686 20.8 326.593 21.6 327.259 22.64V11.2H332.059V40H327.739L327.259 37.08C326.833 37.6667 326.313 38.2267 325.699 38.76C325.086 39.2667 324.353 39.68 323.499 40C322.646 40.32 321.646 40.48 320.499 40.48ZM321.499 36.32C322.646 36.32 323.659 36.0533 324.539 35.52C325.419 34.96 326.099 34.2 326.579 33.24C327.059 32.28 327.299 31.1733 327.299 29.92C327.299 28.6667 327.059 27.56 326.579 26.6C326.099 25.64 325.419 24.8933 324.539 24.36C323.659 23.8267 322.646 23.56 321.499 23.56C320.406 23.56 319.419 23.8267 318.539 24.36C317.659 24.8933 316.966 25.64 316.459 26.6C315.979 27.56 315.739 28.6667 315.739 29.92C315.739 31.1733 315.979 32.28 316.459 33.24C316.966 34.2 317.659 34.96 318.539 35.52C319.419 36.0533 320.406 36.32 321.499 36.32Z" fill="white"/>
<defs>
<clipPath id="clip0_50_69">
<rect width="130" height="40.7333" fill="white" transform="translate(0 5.6333)"/>
</clipPath>
</defs>
</svg>
